<?xml version="1.0" encoding="iso-8859-1"?>
<!-- Generator: Adobe Illustrator 19.0.1, SVG Export Plug-In . SVG Version: 6.00 Build 0)  -->
<svg version="1.1" id="Layer_1" xmlns="http://www.w3.org/2000/svg" xmlns:xlink="http://www.w3.org/1999/xlink" x="0px" y="0px"
	 viewBox="0 0 14.998 8.998" style="enable-background:new 0 0 14.998 8.998;" xml:space="preserve">
<path style="fill-rule:evenodd;clip-rule:evenodd;fill:#BCBDC1;" d="M14.847,0.928l-0.752-0.773C13.995,0.052,13.88,0,13.75,0
	c-0.13,0-0.246,0.052-0.346,0.154L7.499,6.231L1.593,0.154C1.493,0.052,1.377,0,1.247,0c-0.13,0-0.246,0.052-0.346,0.154L0.15,0.928
	C0.05,1.031,0,1.149,0,1.283c0,0.134,0.05,0.253,0.15,0.356l7.003,7.205c0.1,0.103,0.215,0.155,0.346,0.155
	c0.13,0,0.245-0.051,0.346-0.155l7.003-7.205c0.1-0.103,0.15-0.221,0.15-0.356C14.998,1.149,14.947,1.031,14.847,0.928L14.847,0.928
	z"/>
</svg>
