<?xml version="1.0" encoding="iso-8859-1"?>
<!-- Generator: Adobe Illustrator 19.0.1, SVG Export Plug-In . SVG Version: 6.00 Build 0)  -->
<svg version="1.1" id="Outline_Icons" xmlns="http://www.w3.org/2000/svg" xmlns:xlink="http://www.w3.org/1999/xlink" x="0px"
	 y="0px" viewBox="0 0 23.5 23.5" style="enable-background:new 0 0 23.5 23.5;" xml:space="preserve">
<g>
	
		<circle style="fill:none;stroke:#121F2D;stroke-width:1.5;stroke-linecap:round;stroke-linejoin:round;stroke-miterlimit:10;" cx="11.75" cy="11.75" r="11"/>
	<path style="fill:none;stroke:#121F2D;stroke-width:1.5;stroke-linecap:round;stroke-linejoin:round;stroke-miterlimit:10;" d="
		M8.75,9.25c0-1.656,1.343-3,3-3c1.656,0,3,1.344,3,3c0,1.658-1.344,3-3,3v3"/>
	<path style="fill:none;stroke:#121F2D;stroke-width:1.5;stroke-linejoin:round;stroke-miterlimit:10;" d="M12.25,17.75
		c0,0.276-0.224,0.5-0.5,0.5l0,0c-0.276,0-0.5-0.224-0.5-0.5l0,0c0-0.276,0.224-0.5,0.5-0.5l0,0
		C12.026,17.25,12.25,17.474,12.25,17.75L12.25,17.75z"/>
</g>
</svg>
