<?xml version="1.0" encoding="iso-8859-1"?>
<!-- Generator: Adobe Illustrator 19.0.1, SVG Export Plug-In . SVG Version: 6.00 Build 0)  -->
<svg version="1.1" id="Layer_1" xmlns="http://www.w3.org/2000/svg" xmlns:xlink="http://www.w3.org/1999/xlink" x="0px" y="0px"
	 viewBox="0 0 23 21.991" style="enable-background:new 0 0 23 21.991;" xml:space="preserve">
<path style="fill-rule:evenodd;clip-rule:evenodd;fill:#117DC2;" d="M10.986,20.11c-0.023-0.063-0.063-0.114-0.12-0.155
	c-0.058-0.04-0.103-0.071-0.138-0.094c-0.035-0.023-0.101-0.04-0.198-0.052c-0.098-0.011-0.164-0.017-0.198-0.017
	c-0.035,0-0.109,0-0.224,0c-0.115,0-0.178,0-0.189,0H4.959c-0.758,0-1.406-0.269-1.946-0.807C2.474,18.446,2,17.753,2,16.997v-12
	c0-0.756,0.474-1.452,1.013-1.991c0.539-0.538,1.188-0.807,1.946-0.807h5.51c0.149,0,0.267-0.037,0.353-0.112
	c0.086-0.074,0.143-0.186,0.172-0.335c0.028-0.149,0.046-0.283,0.052-0.404c0.006-0.12,0.003-0.272-0.009-0.455
	c-0.011-0.183-0.017-0.298-0.017-0.344c0-0.148-0.055-0.277-0.164-0.386C10.748,0.055,10.618,0,10.469,0h-5.51
	C3.593,0,2.425,0.484,1.455,1.452C0.485,2.42,0,3.585,0,4.948v12.095c0,1.363,0.485,2.528,1.455,3.496
	c0.97,0.968,2.138,1.452,3.504,1.452h5.51c0.149,0,0.267-0.037,0.353-0.111c0.086-0.074,0.143-0.186,0.172-0.335
	c0.028-0.149,0.046-0.283,0.052-0.404c0.006-0.12,0.003-0.272-0.009-0.455c-0.011-0.183-0.017-0.298-0.017-0.344
	C11.021,20.25,11.009,20.173,10.986,20.11z M22.673,10.222L15,2.997c0.436,0.435-1-1.336-1,1v4H7c-0.597,0-1,0.404-1,1v4
	c0,0.596,0.403,1,1,1h7v4c0,2.336,1.436,0.565,1,1l7.673-7.228C22.891,11.551,23,11.293,23,10.996
	C23,10.698,22.891,10.44,22.673,10.222L22.673,10.222z"/>
</svg>
