<?xml version="1.0" encoding="iso-8859-1"?>
<!-- Generator: Adobe Illustrator 19.0.1, SVG Export Plug-In . SVG Version: 6.00 Build 0)  -->
<svg version="1.1" id="Layer_1" xmlns="http://www.w3.org/2000/svg" xmlns:xlink="http://www.w3.org/1999/xlink" x="0px" y="0px"
	 viewBox="0 0 11.999 12.007" style="enable-background:new 0 0 11.999 12.007;" xml:space="preserve">
<g>
	<path style="fill-rule:evenodd;clip-rule:evenodd;fill:#BCBDC1;" d="M4.539,6.004L0.137,1.488C0.046,1.394,0,1.287,0,1.165
		c0-0.121,0.046-0.229,0.137-0.323L0.825,0.14C0.916,0.047,1.022,0,1.141,0C1.26,0,1.365,0.047,1.457,0.14l5.405,5.541
		c0.092,0.094,0.137,0.201,0.137,0.323c0,0.122-0.046,0.229-0.137,0.323l-5.405,5.54c-0.091,0.094-0.197,0.14-0.316,0.14
		c-0.119,0-0.224-0.047-0.316-0.14l-0.687-0.702C0.046,11.072,0,10.964,0,10.842c0-0.121,0.046-0.229,0.137-0.323L4.539,6.004z"/>
	<path style="fill-rule:evenodd;clip-rule:evenodd;fill:#BCBDC1;" d="M9.539,6.004L5.137,1.488C5.046,1.394,5,1.287,5,1.165
		c0-0.121,0.046-0.229,0.137-0.323L5.825,0.14C5.916,0.047,6.022,0,6.141,0s0.224,0.047,0.316,0.14l5.404,5.541
		c0.092,0.094,0.138,0.201,0.138,0.323c0,0.122-0.046,0.229-0.138,0.323l-5.404,5.54c-0.092,0.094-0.197,0.14-0.316,0.14
		s-0.224-0.047-0.316-0.14l-0.687-0.702C5.046,11.072,5,10.964,5,10.842c0-0.121,0.046-0.229,0.137-0.323L9.539,6.004z"/>
</g>
</svg>
