<?xml version="1.0" encoding="iso-8859-1"?>
<!-- Generator: Adobe Illustrator 19.0.1, SVG Export Plug-In . SVG Version: 6.00 Build 0)  -->
<svg version="1.1" id="Layer_1" xmlns="http://www.w3.org/2000/svg" xmlns:xlink="http://www.w3.org/1999/xlink" x="0px" y="0px"
	 viewBox="0 0 11.999 12.007" style="enable-background:new 0 0 11.999 12.007;" xml:space="preserve">
<g>
	<path style="fill-rule:evenodd;clip-rule:evenodd;fill:#BCBDC1;" d="M7.46,6.004l4.401-4.516c0.091-0.093,0.137-0.201,0.137-0.323
		c0-0.121-0.046-0.229-0.137-0.323L11.174,0.14C11.083,0.047,10.977,0,10.858,0c-0.119,0-0.225,0.047-0.316,0.14L5.138,5.681
		C5.046,5.775,5,5.882,5,6.004c0,0.122,0.046,0.229,0.137,0.323l5.405,5.54c0.091,0.094,0.197,0.14,0.316,0.14
		c0.119,0,0.224-0.047,0.316-0.14l0.687-0.702c0.091-0.093,0.137-0.201,0.137-0.323c0-0.121-0.046-0.229-0.137-0.323L7.46,6.004z"/>
	<path style="fill-rule:evenodd;clip-rule:evenodd;fill:#BCBDC1;" d="M2.46,6.004l4.401-4.516c0.091-0.093,0.137-0.201,0.137-0.323
		c0-0.121-0.046-0.229-0.137-0.323L6.174,0.14C6.083,0.047,5.977,0,5.858,0C5.739,0,5.634,0.047,5.542,0.14L0.138,5.681
		C0.046,5.775,0,5.882,0,6.004c0,0.122,0.046,0.229,0.138,0.323l5.404,5.54c0.092,0.094,0.197,0.14,0.316,0.14
		s0.224-0.047,0.316-0.14l0.687-0.702c0.091-0.093,0.137-0.201,0.137-0.323c0-0.121-0.046-0.229-0.137-0.323L2.46,6.004z"/>
</g>
</svg>
