<?xml version="1.0" encoding="iso-8859-1"?>
<!-- Generator: Adobe Illustrator 19.0.1, SVG Export Plug-In . SVG Version: 6.00 Build 0)  -->
<svg version="1.1" id="Layer_1" xmlns="http://www.w3.org/2000/svg" xmlns:xlink="http://www.w3.org/1999/xlink" x="0px" y="0px"
	 viewBox="0 0 6.999 12.007" style="enable-background:new 0 0 6.999 12.007;" xml:space="preserve">
<path style="fill-rule:evenodd;clip-rule:evenodd;fill:#0F7DC2;" d="M0.137,0.842L0.825,0.14C0.916,0.047,1.022,0,1.141,0
	C1.26,0,1.365,0.047,1.457,0.14l5.405,5.541c0.092,0.094,0.137,0.201,0.137,0.323c0,0.122-0.046,0.229-0.137,0.323l-5.405,5.541
	c-0.092,0.094-0.197,0.14-0.316,0.14c-0.119,0-0.224-0.047-0.316-0.14l-0.687-0.702C0.046,11.072,0,10.964,0,10.842
	c0-0.122,0.046-0.229,0.137-0.323l4.401-4.516L0.137,1.488C0.046,1.394,0,1.287,0,1.165C0,1.043,0.046,0.936,0.137,0.842
	L0.137,0.842z"/>
</svg>
