<?xml version="1.0" encoding="iso-8859-1"?>
<!-- Generator: Adobe Illustrator 19.0.1, SVG Export Plug-In . SVG Version: 6.00 Build 0)  -->
<svg version="1.1" id="Layer_1" xmlns="http://www.w3.org/2000/svg" xmlns:xlink="http://www.w3.org/1999/xlink" x="0px" y="0px"
	 viewBox="0 0 6.999 12.007" style="enable-background:new 0 0 6.999 12.007;" xml:space="preserve">
<path style="fill-rule:evenodd;clip-rule:evenodd;fill:#BCBDC1;" d="M6.861,0.842L6.174,0.14C6.082,0.047,5.977,0,5.858,0
	C5.739,0,5.633,0.047,5.542,0.14L0.137,5.681C0.046,5.774,0,5.882,0,6.004c0,0.122,0.046,0.229,0.137,0.323l5.405,5.541
	c0.091,0.094,0.197,0.14,0.316,0.14c0.119,0,0.224-0.047,0.316-0.14l0.687-0.702c0.091-0.093,0.137-0.201,0.137-0.323
	c0-0.122-0.046-0.229-0.137-0.323L2.46,6.004l4.401-4.516c0.091-0.093,0.137-0.201,0.137-0.323C6.999,1.043,6.953,0.936,6.861,0.842
	L6.861,0.842z"/>
</svg>
