<?xml version="1.0" encoding="iso-8859-1"?>
<!-- Generator: Adobe Illustrator 19.0.1, SVG Export Plug-In . SVG Version: 6.00 Build 0)  -->
<svg version="1.1" id="Layer_1" xmlns="http://www.w3.org/2000/svg" xmlns:xlink="http://www.w3.org/1999/xlink" x="0px" y="0px"
	 viewBox="0 0 35.917 35.917" style="enable-background:new 0 0 35.917 35.917;" xml:space="preserve">
<g>
	<path style="fill:#FFFFFF;" d="M23.587,12.542h-3.106l-1.967,3.218c-0.19,0.418-0.319,0.733-0.388,0.944h-0.034
		c-0.109-0.352-0.233-0.657-0.371-0.914l-1.768-3.248h-3.39l3.606,5.417l-3.943,5.417h3.321l2.139-3.498
		c0.15-0.337,0.245-0.589,0.285-0.755h0.034c0.086,0.352,0.169,0.594,0.25,0.725l2.131,3.528h3.304l-3.813-5.462L23.587,12.542z"/>
	<path style="fill:#FFFFFF;" d="M17.958,0C8.04,0,0,8.04,0,17.958c0,9.918,8.04,17.958,17.958,17.958s17.958-8.04,17.958-17.958
		C35.917,8.04,27.876,0,17.958,0z M17.958,33.708c-8.698,0-15.75-7.052-15.75-15.75s7.052-15.75,15.75-15.75
		s15.75,7.052,15.75,15.75S26.657,33.708,17.958,33.708z"/>
	<path style="fill:#007DC5;" d="M17.958,2.208c-8.698,0-15.75,7.052-15.75,15.75s7.052,15.75,15.75,15.75s15.75-7.052,15.75-15.75
		S26.657,2.208,17.958,2.208z M20.387,23.375l-2.131-3.528c-0.081-0.131-0.164-0.373-0.25-0.725h-0.034
		c-0.04,0.166-0.135,0.418-0.285,0.755l-2.139,3.498h-3.321l3.943-5.417l-3.606-5.417h3.39l1.768,3.248
		c0.138,0.257,0.262,0.562,0.371,0.914h0.034c0.069-0.211,0.198-0.526,0.388-0.944l1.967-3.218h3.106l-3.71,5.371l3.813,5.462
		H20.387z"/>
</g>
</svg>
