<?xml version="1.0" encoding="iso-8859-1"?>
<!-- Generator: Adobe Illustrator 19.0.1, SVG Export Plug-In . SVG Version: 6.00 Build 0)  -->
<svg version="1.1" id="Layer_1" xmlns="http://www.w3.org/2000/svg" xmlns:xlink="http://www.w3.org/1999/xlink" x="0px" y="0px"
	 viewBox="0 0 11.998 12.012" style="enable-background:new 0 0 11.998 12.012;" xml:space="preserve">
<path style="fill-rule:evenodd;clip-rule:evenodd;fill:#0F7DC2;" d="M11.729,7.082c-0.05-0.049-0.108-0.074-0.176-0.074h-1.5
	c-0.115,0-0.193,0.06-0.234,0.18C9.6,7.709,9.462,8.014,9.405,8.102c-0.365,0.594-0.849,1.061-1.453,1.4
	C7.348,9.841,6.697,10.01,5.999,10.01c-0.505,0-0.992-0.094-1.461-0.281C4.07,9.541,3.65,9.275,3.281,8.931l1.07-1.071
	C4.45,7.761,4.499,7.643,4.499,7.508c0-0.136-0.05-0.253-0.148-0.352C4.252,7.057,4.135,7.007,3.999,7.007H0.5
	c-0.135,0-0.252,0.05-0.351,0.149C0.049,7.255,0,7.372,0,7.508v3.504c0,0.136,0.049,0.253,0.148,0.352
	c0.099,0.099,0.216,0.148,0.351,0.148s0.253-0.05,0.352-0.148l1.008-1.009c0.557,0.532,1.191,0.941,1.902,1.228
	c0.711,0.286,1.446,0.43,2.207,0.43c1.427,0,2.671-0.434,3.734-1.302c1.062-0.868,1.76-2.001,2.093-3.398
	c0.005-0.01,0.008-0.029,0.008-0.055C11.803,7.19,11.778,7.131,11.729,7.082z M11.85,0.649C11.75,0.55,11.634,0.5,11.498,0.5
	c-0.135,0-0.253,0.05-0.352,0.149l-1.016,1.009C9.574,1.131,8.936,0.723,8.217,0.434C7.499,0.145,6.759,0,5.999,0
	C4.567,0,3.317,0.434,2.25,1.302C1.182,2.17,0.479,3.303,0.141,4.7v0.055c0,0.068,0.025,0.127,0.074,0.176
	c0.049,0.05,0.108,0.074,0.176,0.074h1.554c0.114,0,0.192-0.06,0.234-0.18C2.398,4.304,2.536,3.999,2.593,3.91
	c0.364-0.594,0.849-1.061,1.453-1.4C4.65,2.171,5.301,2.002,5.999,2.002c1.047,0,1.955,0.357,2.726,1.071L7.647,4.153
	C7.548,4.252,7.499,4.369,7.499,4.505s0.049,0.253,0.148,0.352c0.099,0.099,0.216,0.148,0.351,0.148h3.5
	c0.135,0,0.252-0.049,0.351-0.148c0.099-0.099,0.148-0.216,0.148-0.352V1.001C11.998,0.865,11.948,0.748,11.85,0.649z"/>
</svg>
