<?xml version="1.0" encoding="iso-8859-1"?>
<!-- Generator: Adobe Illustrator 19.0.1, SVG Export Plug-In . SVG Version: 6.00 Build 0)  -->
<svg version="1.1" id="Outline_Icons" xmlns="http://www.w3.org/2000/svg" xmlns:xlink="http://www.w3.org/1999/xlink" x="0px"
	 y="0px" viewBox="0 0 24 24" style="enable-background:new 0 0 24 24;" xml:space="preserve">
<g>
	
		<line style="fill:none;stroke:#121F2D;stroke-linecap:round;stroke-linejoin:round;stroke-miterlimit:10;" x1="5" y1="23.5" x2="11" y2="23.5"/>
	
		<line style="fill:none;stroke:#121F2D;stroke-linecap:round;stroke-linejoin:round;stroke-miterlimit:10;" x1="8" y1="21.5" x2="8" y2="23.458"/>
	<line style="fill:none;stroke:#121F2D;stroke-linejoin:round;stroke-miterlimit:10;" x1="0.5" y1="19.5" x2="15.5" y2="19.5"/>
	<path style="fill:none;stroke:#121F2D;stroke-linecap:round;stroke-linejoin:round;stroke-miterlimit:10;" d="M8.5,10.5V9
		c0-2.762,2.238-5,5-5"/>
	<polyline style="fill:none;stroke:#121F2D;stroke-linecap:round;stroke-linejoin:round;stroke-miterlimit:10;" points="10.5,8.5 
		8.5,10.5 6.5,8.5 	"/>
	<path style="fill:none;stroke:#121F2D;stroke-linecap:round;stroke-linejoin:round;stroke-miterlimit:10;" d="M12.5,11.5H14
		c0.828,0,1.5,0.671,1.5,1.5v7c0,0.828-0.672,1.5-1.5,1.5H2c-0.83,0-1.5-0.672-1.5-1.5v-7c0-0.829,0.67-1.5,1.5-1.5h1.5"/>
	<path style="fill:none;stroke:#121F2D;stroke-linecap:round;stroke-linejoin:round;stroke-miterlimit:10;" d="M12.5,6.5V7
		c0,0.828,0.67,1.5,1.5,1.5h8c0.828,0,1.5-0.672,1.5-1.5V2c0-0.829-0.672-1.5-1.5-1.5h-8c-0.83,0-1.5,0.671-1.5,1.5"/>
	
		<line style="fill:none;stroke:#121F2D;stroke-linecap:round;stroke-linejoin:round;stroke-miterlimit:10;" x1="12.5" y1="6.5" x2="23.5" y2="6.5"/>
	
		<line style="fill:none;stroke:#121F2D;stroke-linecap:round;stroke-linejoin:round;stroke-miterlimit:10;" x1="16.5" y1="10.5" x2="19.5" y2="10.5"/>
	
		<line style="fill:none;stroke:#121F2D;stroke-linecap:round;stroke-linejoin:round;stroke-miterlimit:10;" x1="18" y1="8.5" x2="18" y2="10.5"/>
</g>
</svg>
