<?xml version="1.0" encoding="iso-8859-1"?>
<!-- Generator: Adobe Illustrator 19.0.1, SVG Export Plug-In . SVG Version: 6.00 Build 0)  -->
<svg version="1.1" id="Layer_1" xmlns="http://www.w3.org/2000/svg" xmlns:xlink="http://www.w3.org/1999/xlink" x="0px" y="0px"
	 viewBox="0 0 6.999 12.007" style="enable-background:new 0 0 6.999 12.007;" xml:space="preserve">
<path style="fill-rule:evenodd;clip-rule:evenodd;fill:#BCBDC1;" d="M0.137,0.842C0.046,0.936,0,1.043,0,1.165
	c0,0.122,0.046,0.23,0.137,0.323l4.401,4.516L0.137,10.52C0.046,10.613,0,10.721,0,10.842c0,0.122,0.046,0.229,0.137,0.323
	l0.687,0.702c0.092,0.094,0.197,0.14,0.316,0.14c0.119,0,0.225-0.047,0.316-0.14l5.405-5.541c0.092-0.093,0.137-0.201,0.137-0.323
	c0-0.122-0.046-0.229-0.137-0.323L1.457,0.14C1.365,0.047,1.26,0,1.141,0C1.022,0,0.916,0.047,0.825,0.14L0.137,0.842L0.137,0.842z"
	/>
</svg>
