<?xml version="1.0" encoding="iso-8859-1"?>
<!-- Generator: Adobe Illustrator 19.0.1, SVG Export Plug-In . SVG Version: 6.00 Build 0)  -->
<svg version="1.1" id="Layer_1" xmlns="http://www.w3.org/2000/svg" xmlns:xlink="http://www.w3.org/1999/xlink" x="0px" y="0px"
	 viewBox="0 0 24 24" style="enable-background:new 0 0 24 24;" xml:space="preserve">
<path style="fill:#ED2127;" d="M5.941,18.273c1.212-2.144,3.457-3.474,6.059-3.476c2.66,0.005,4.921,1.256,6.114,3.453
	c0.131,0.243,0.435,0.333,0.678,0.202c0.243-0.132,0.333-0.435,0.202-0.678c-1.372-2.541-4.02-3.982-6.993-3.977
	c-2.948-0.002-5.546,1.527-6.93,3.985c-0.136,0.24-0.051,0.545,0.19,0.681C5.5,18.599,5.805,18.514,5.941,18.273L5.941,18.273z"/>
<path style="fill:#ED2127;" d="M8.75,8.5h-0.5c-0.001,0.551-0.449,0.999-1,1c-0.552-0.001-0.999-0.448-1-1
	c0.001-0.552,0.448-0.999,1-1c0.551,0.001,0.999,0.449,1,1H8.75h0.5c0-1.105-0.896-1.999-2-2c-1.105,0-2,0.896-2,2
	c0,1.104,0.895,2,2,2c1.104,0,1.999-0.895,2-2H8.75z"/>
<path style="fill:#ED2127;" d="M14.75,8.5h-0.5c0,1.104,0.895,2,2,2c1.104,0,1.999-0.895,2-2c-0.001-1.105-0.896-1.999-2-2
	c-1.105,0-2,0.896-2,2H14.75h0.5c0.001-0.552,0.448-0.999,1-1c0.551,0.001,0.999,0.449,1,1c-0.001,0.551-0.449,0.999-1,1
	c-0.552-0.001-0.999-0.448-1-1H14.75z"/>
<path style="fill:#ED2127;" d="M23.5,12H23c0,3.039-1.231,5.786-3.222,7.778C17.786,21.77,15.039,23,12,23
	c-3.039,0-5.786-1.23-7.778-3.222C2.23,17.786,1,15.039,1,12c0-3.04,1.23-5.786,3.222-7.778C6.214,2.23,8.961,1,12,1
	c3.039,0,5.786,1.23,7.778,3.222C21.769,6.214,23,8.96,23,12H23.5H24c0-6.628-5.373-12-12-12C5.372,0,0,5.372,0,12
	c0,6.628,5.372,12,12,12c6.627,0,12-5.372,12-12H23.5z"/>
<path style="fill:#ED2127;" d="M5.941,18.273c1.212-2.144,3.457-3.474,6.059-3.476c2.66,0.005,4.921,1.256,6.114,3.453
	c0.131,0.243,0.435,0.333,0.678,0.202c0.243-0.132,0.333-0.435,0.202-0.678c-1.372-2.541-4.02-3.982-6.993-3.977
	c-2.948-0.002-5.546,1.527-6.93,3.985c-0.136,0.24-0.051,0.545,0.19,0.681C5.5,18.599,5.805,18.514,5.941,18.273L5.941,18.273z"/>
<path style="fill:#ED2127;" d="M8.75,8.5h-0.5c-0.001,0.551-0.449,0.999-1,1c-0.552-0.001-0.999-0.448-1-1
	c0.001-0.552,0.448-0.999,1-1c0.551,0.001,0.999,0.449,1,1H8.75h0.5c0-1.105-0.896-1.999-2-2c-1.105,0-2,0.896-2,2
	c0,1.104,0.895,2,2,2c1.104,0,1.999-0.895,2-2H8.75z"/>
<path style="fill:#ED2127;" d="M14.75,8.5h-0.5c0,1.104,0.895,2,2,2c1.104,0,1.999-0.895,2-2c-0.001-1.105-0.896-1.999-2-2
	c-1.105,0-2,0.896-2,2H14.75h0.5c0.001-0.552,0.448-0.999,1-1c0.551,0.001,0.999,0.449,1,1c-0.001,0.551-0.449,0.999-1,1
	c-0.552-0.001-0.999-0.448-1-1H14.75z"/>
<path style="fill:#ED2127;" d="M23.5,12H23c0,3.039-1.231,5.786-3.222,7.778C17.786,21.77,15.039,23,12,23
	c-3.039,0-5.786-1.23-7.778-3.222C2.23,17.786,1,15.039,1,12c0-3.04,1.23-5.786,3.222-7.778C6.214,2.23,8.961,1,12,1
	c3.039,0,5.786,1.23,7.778,3.222C21.769,6.214,23,8.96,23,12H23.5H24c0-6.628-5.373-12-12-12C5.372,0,0,5.372,0,12
	c0,6.628,5.372,12,12,12c6.627,0,12-5.372,12-12H23.5z"/>
</svg>
