<?xml version="1.0" encoding="iso-8859-1"?>
<!-- Generator: Adobe Illustrator 19.0.1, SVG Export Plug-In . SVG Version: 6.00 Build 0)  -->
<svg version="1.1" id="Layer_1" xmlns="http://www.w3.org/2000/svg" xmlns:xlink="http://www.w3.org/1999/xlink" x="0px" y="0px"
	 viewBox="0 0 24 24" style="enable-background:new 0 0 24 24;" xml:space="preserve">
<path style="fill:#559542;" d="M23.5,12H23c0,3.039-1.231,5.785-3.222,7.778C17.786,21.769,15.039,23,12,23
	c-3.039,0-5.786-1.231-7.778-3.222C2.23,17.786,1,15.039,1,12c0-3.04,1.23-5.786,3.222-7.778C6.214,2.23,8.961,1,12,1
	c3.039,0,5.786,1.23,7.778,3.222C21.769,6.214,23,8.96,23,12H23.5H24c0-6.628-5.373-12-12-12C5.372,0,0,5.372,0,12
	c0,6.627,5.372,12,12,12c6.627,0,12-5.373,12-12H23.5z"/>
<path style="fill:#559542;" d="M19.5,13.5H19c0.001,1.665-0.771,3.292-2.042,4.504C15.688,19.215,13.934,20,12,20
	c-1.934,0-3.688-0.785-4.958-1.996C5.771,16.792,4.999,15.165,5,13.5H4.5V14h15V13.5H19H19.5V13h-15
	c-0.132,0-0.26,0.053-0.354,0.146C4.053,13.24,4,13.368,4,13.5c0.014,3.953,3.587,7.49,8,7.5c4.413-0.01,7.986-3.547,8-7.5
	c0-0.134-0.052-0.259-0.146-0.354C19.759,13.052,19.633,13,19.5,13V13.5z"/>
<path style="fill:#559542;" d="M9,7.5H8.5c-0.001,0.551-0.449,0.999-1,1c-0.552-0.001-0.999-0.448-1-1c0.001-0.552,0.448-0.999,1-1
	c0.551,0.001,0.999,0.449,1,1H9h0.5c0-1.105-0.896-1.999-2-2c-1.105,0-2,0.896-2,2c0,1.104,0.895,2,2,2c1.104,0,1.999-0.895,2-2H9z"
	/>
<path style="fill:#559542;" d="M15,7.5h-0.5c0,1.104,0.895,2,2,2c1.104,0,1.999-0.895,2-2c-0.001-1.105-0.896-1.999-2-2
	c-1.105,0-2,0.896-2,2H15h0.5c0.001-0.552,0.448-0.999,1-1c0.551,0.001,0.999,0.449,1,1c-0.001,0.551-0.449,0.999-1,1
	c-0.552-0.001-0.999-0.448-1-1H15z"/>
</svg>
