<?xml version="1.0" encoding="iso-8859-1"?>
<!-- Generator: Adobe Illustrator 19.0.1, SVG Export Plug-In . SVG Version: 6.00 Build 0)  -->
<svg version="1.1" id="Layer_1" xmlns="http://www.w3.org/2000/svg" xmlns:xlink="http://www.w3.org/1999/xlink" x="0px" y="0px"
	 viewBox="0 0 12.997 10.998" style="enable-background:new 0 0 12.997 10.998;" xml:space="preserve">
<path style="fill-rule:evenodd;clip-rule:evenodd;fill:#0F7DC2;" d="M12.823,1.134l-0.868-0.945C11.839,0.063,11.706,0,11.556,0
	c-0.151,0-0.284,0.063-0.399,0.189L4.332,7.616L1.841,4.772C1.725,4.647,1.592,4.583,1.441,4.583c-0.151,0-0.284,0.063-0.4,0.189
	L0.174,5.717C0.058,5.843,0,5.988,0,6.152c0,0.164,0.058,0.309,0.174,0.435l3.759,4.223c0.116,0.126,0.249,0.189,0.4,0.189
	c0.15,0,0.284-0.063,0.399-0.189l8.092-8.806c0.116-0.126,0.174-0.271,0.174-0.435C12.997,1.405,12.939,1.26,12.823,1.134
	L12.823,1.134z"/>
</svg>
