<?xml version="1.0" encoding="iso-8859-1"?>
<!-- Generator: Adobe Illustrator 19.0.1, SVG Export Plug-In . SVG Version: 6.00 Build 0)  -->
<svg version="1.1" id="Layer_1" xmlns="http://www.w3.org/2000/svg" xmlns:xlink="http://www.w3.org/1999/xlink" x="0px" y="0px"
	 viewBox="0 0 33 33.266" style="enable-background:new 0 0 33 33.266;" xml:space="preserve">
<g>
	<path style="fill:none;" d="M10.281,21.594l3,2l2,1l4-0.188l2-1.019l1-0.793l1-1l4,3l1.429,1.118
		c1.939-2.565,3.102-5.749,3.102-9.212c0-8.457-6.856-15.313-15.313-15.313S1.188,8.043,1.188,16.5c0,3.372,1.103,6.48,2.951,9.01
		l4.143-2.916L10.281,21.594z M9.281,12.313V7.594c0,0,2.25-5.417,8-5s6,6,6,6v4l1.5-0.25l-0.125,1.813l-0.375,1.438l-0.263,1.131
		l-1.737,0.869c0,0-0.907,3.43-3,5c-3,2.25-6-1-6-1l-3-4l-1-1l-1-3L9.281,12.313z"/>
	<path style="fill:#898989;" d="M9.865,16.5l2.208,4.051c0.411,0.582,0.991,1.397,1.375,1.668c1.148,0.809,3.542,2.042,5.833,0.375
		c2.116-1.539,3.458-6.094,3.458-6.094s2.806-2.903,1.583-4.031c-0.542-0.5-1.042,0.125-1.042,0.125v-4c0,0-0.583-5.25-6.333-5.667
		c-3.794-0.275-5.73,1.656-6.836,3.228C9.559,6.942,9.281,7.887,9.281,8.848v3.464c0,0-0.607-0.004-0.804,0.639
		C8.019,14.451,9.865,16.5,9.865,16.5z"/>
	<path style="fill:#898989;" d="M16.5,31.813c4.994,0,9.415-2.401,12.211-6.1l-1.429-1.118l-4-3l-1,1c0,0-1.542,2.042-5.857,1.946
		c-3.101-0.068-6.143-2.946-6.143-2.946l-2,1L4.138,25.51C6.923,29.324,11.416,31.813,16.5,31.813z"/>
	<path style="fill:#DFF3FB;" d="M16.5,0C7.387,0,0,7.387,0,16.5S7.387,33,16.5,33S33,25.613,33,16.5S25.613,0,16.5,0z M28.48,27.729
		l-3.822,2.867l-4.592,1.67h-6.035l-4.429-1.313l-3.11-1.96l-1.394-1.249l-1.563-1.811l0.602-0.424
		c-1.847-2.53-2.951-5.638-2.951-9.01c0-8.457,6.856-15.313,15.313-15.313S31.813,8.043,31.813,16.5
		c0,3.463-1.163,6.647-3.102,9.212l0.927,0.725L28.48,27.729z"/>
	<path style="fill:#DFF3FB;" d="M16.5,31.813c-5.084,0-9.577-2.488-12.362-6.302l-0.602,0.424l1.563,1.811l1.394,1.249l3.11,1.96
		l4.429,1.313h6.035l4.592-1.67l3.822-2.867l1.158-1.292l-0.927-0.725C25.915,29.411,21.494,31.813,16.5,31.813z"/>
</g>
</svg>
